<?xml version="1.0" encoding="utf-8"?>
<!-- Generator: Adobe Illustrator 23.0.3, SVG Export Plug-In . SVG Version: 6.00 Build 0)  -->
<svg version="1.1" id="Layer_1" xmlns="http://www.w3.org/2000/svg" xmlns:xlink="http://www.w3.org/1999/xlink" x="0px" y="0px"
	 viewBox="0 0 146.12 36.54" style="enable-background:new 0 0 146.12 36.54;" xml:space="preserve">
<style type="text/css">
	.st0{fill-rule:evenodd;clip-rule:evenodd;fill:#F68A39;}
	.st1{fill:#1A1A1A;}
	.st2{fill:#F68A39;}
</style>
<g>
	<g>
		<path class="st0" d="M14.68,35.07c0,0.81-0.66,1.47-1.47,1.47c-0.81,0-1.47-0.66-1.47-1.47c0-10.75,0-21.49,0-32.24h0V1.47
			C11.74,0.66,12.4,0,13.21,0c0.81,0,1.47,0.66,1.47,1.47l0,13.47l0,7.67C14.68,26.77,14.68,30.92,14.68,35.07z"/>
		<path class="st0" d="M1.47,23.43C0.66,23.43,0,22.77,0,21.96l0-7.38c0-0.81,0.66-1.47,1.47-1.47c0.81,0,1.47,0.66,1.47,1.47v7.38
			C2.94,22.77,2.27,23.43,1.47,23.43z"/>
		<path class="st0" d="M7.34,26.29c-0.81,0-1.47-0.66-1.47-1.47V11.72c0-0.81,0.66-1.47,1.47-1.47c0.81,0,1.47,0.66,1.47,1.47v13.11
			C8.81,25.63,8.15,26.29,7.34,26.29z"/>
	</g>
	<g>
		<polygon class="st1" points="142.28,5.1 135.5,13.1 128.72,5.1 124.88,5.1 134.03,15.88 134.03,25.61 136.96,25.61 136.96,15.88 
			146.12,5.1 		"/>
		<path class="st1" d="M35.52,22.68H22.34v2.93h13.18c1.35,0,2.54-0.4,3.55-1.2c-0.66-0.73-1.24-1.52-1.73-2.38
			C36.83,22.45,36.22,22.68,35.52,22.68z"/>
		<path class="st1" d="M106.56,8.1c-2-2-4.42-3-7.25-3h-5.87h-2.92v12.47l2.92,3.46v-13h0.01h2.78h3.08c2.02,0,3.75,0.72,5.18,2.15
			c1.43,1.43,2.15,3.16,2.15,5.18c0,2.02-0.72,3.75-2.15,5.18c-1.43,1.43-3.16,2.15-5.18,2.15h-3.08h-2.78v0.4h-0.01v-0.4h-1.37
			L77.33,5.32L77.14,5.1H74.4h0v10.25c0,2.02-0.72,3.75-2.15,5.18c-1.43,1.43-3.16,2.15-5.18,2.15c-2.02,0-3.75-0.72-5.18-2.15
			c-1.43-1.43-2.15-3.16-2.15-5.18v-0.07c0,0,0,0,0,0c0,0.03,0,0.05,0,0.07c0-2.89-0.98-5.37-2.93-7.46
			c-0.1-0.1-0.19-0.21-0.29-0.31c-2.14-2.14-4.73-3.21-7.77-3.21c-2.86,0-5.32,0.96-7.38,2.86c-0.13,0.12-0.26,0.23-0.39,0.35
			c-0.15,0.15-0.27,0.3-0.41,0.45c-1.19,1.32-2.01,2.79-2.44,4.43c0.14,0.05,0.28,0.09,0.41,0.15c0.82,0.35,1.57,0.85,2.25,1.49
			c0.25-1.69,0.99-3.17,2.26-4.44c1.57-1.57,3.47-2.36,5.7-2.36c2.23,0,4.13,0.79,5.7,2.36c1.57,1.57,2.36,3.47,2.36,5.7
			c0,2.23-0.79,4.13-2.36,5.7c-1.57,1.57-3.47,2.36-5.7,2.36c-2.23,0-4.13-0.79-5.7-2.36c-0.99-0.99-1.66-2.1-2.03-3.35
			c0,0,0,0-0.01,0c0.05,0.13,0.07,0.27,0.11,0.41c-0.26-0.93-0.73-1.78-1.47-2.51c-0.56-0.56-1.17-0.98-1.84-1.26
			c-0.7-0.3-1.47-0.45-2.3-0.45H28.2c-0.81,0-1.5-0.29-2.07-0.86c-0.57-0.57-0.86-1.26-0.86-2.07c0-0.81,0.29-1.5,0.86-2.07
			c0.57-0.57,1.26-0.86,2.07-0.86h9.96c0.3-0.42,0.63-0.81,0.97-1.19c0.02-0.02,0.04-0.05,0.06-0.07l0.12-0.13
			c0.05-0.05,0.1-0.1,0.15-0.15l0.32-0.34l0.33-0.31c0.29-0.26,0.58-0.51,0.88-0.74H28.2c-1.62,0-3,0.57-4.15,1.71
			c-1.14,1.14-1.71,2.52-1.71,4.15c0,1.62,0.57,3,1.71,4.15c1.14,1.14,2.52,1.71,4.15,1.71h7.32c0.81,0,1.5,0.29,2.07,0.86
			c0.34,0.34,0.57,0.73,0.71,1.16l0.02,0v0c0.46,1.41,1.22,2.7,2.27,3.86c0.13,0.14,0.25,0.29,0.39,0.43
			c2.14,2.14,4.73,3.21,7.77,3.21s5.63-1.07,7.77-3.21c0.73-0.73,1.33-1.52,1.82-2.36c0.41,0.65,0.9,1.26,1.47,1.84
			c2,2,4.42,3,7.25,3c2.83,0,5.25-1,7.25-3c0.03-0.03,0.05-0.06,0.08-0.08c1.95-1.99,2.93-4.37,2.93-7.17c0,0.1-0.01,0.2-0.01,0.3
			c0.01,0,0.01,0.01,0.02,0.01v-5.8l13.19,15.53l0.18,0.22h2.74h5.87c2.83,0,5.25-1,7.25-3c2-2,3-4.42,3-7.25
			C109.56,12.52,108.56,10.1,106.56,8.1z M37.82,16.31c-0.03-0.31-0.04-0.63-0.04-0.96C37.78,15.68,37.79,15.99,37.82,16.31z
			 M38.08,17.95c0.01,0.02,0.01,0.05,0.02,0.07C38.09,18,38.09,17.98,38.08,17.95z M37.89,16.91c0.01,0.09,0.02,0.19,0.04,0.28
			C37.91,17.1,37.9,17,37.89,16.91z M41.28,18.65c0.06,0.35,0.1,0.72,0.1,1.1C41.38,19.37,41.34,19,41.28,18.65z"/>
		<polygon class="st1" points="112.3,17.04 114.37,19.47 119,9.98 124.26,20.76 126.63,25.61 129.88,25.61 119,3.3 		"/>
		<polygon class="st1" points="108.12,25.61 111.37,25.61 112.42,23.46 110.35,21.03 		"/>
	</g>
	<g>
		<path class="st2" d="M52.59,30.86c0,0.54-0.44,0.98-0.98,0.98h-0.94v1.52h-0.45v-3.48h1.39C52.15,29.88,52.59,30.32,52.59,30.86z
			 M52.14,30.86c0-0.29-0.24-0.53-0.53-0.53h-0.94v1.07h0.94C51.9,31.39,52.14,31.15,52.14,30.86z"/>
		<path class="st2" d="M54.98,31.81l0.77,1.54h-0.5l-0.76-1.52h-0.67v1.52h-0.45v-3.48h1.39c0.54,0,0.98,0.44,0.98,0.98
			C55.75,31.33,55.42,31.72,54.98,31.81z M54.77,31.39c0.29,0,0.53-0.24,0.53-0.53s-0.24-0.53-0.53-0.53h-0.94v1.07H54.77z"/>
		<path class="st2" d="M59.83,31.62c0,0.96-0.78,1.74-1.74,1.74c-0.96,0-1.74-0.78-1.74-1.74s0.78-1.74,1.74-1.74
			C59.05,29.88,59.83,30.66,59.83,31.62z M59.38,31.62c0-0.35-0.13-0.67-0.38-0.91c-0.24-0.24-0.57-0.38-0.91-0.38
			c-0.35,0-0.67,0.13-0.91,0.38c-0.24,0.24-0.38,0.57-0.38,0.91c0,0.35,0.13,0.67,0.38,0.91c0.24,0.24,0.57,0.38,0.91,0.38
			c0.35,0,0.67-0.13,0.91-0.38C59.25,32.29,59.38,31.96,59.38,31.62z"/>
		<path class="st2" d="M60.88,30.32v1.07h1.12v0.45h-1.12v1.52h-0.45v-3.48h1.92v0.45H60.88z"/>
		<path class="st2" d="M63.6,30.32v1.07h1.12v0.45H63.6v1.07h1.48v0.45h-1.92v-3.48h1.92v0.45H63.6z"/>
		<path class="st2" d="M67.83,32.38c0,0.54-0.44,0.98-0.98,0.98s-0.98-0.44-0.98-0.98h0.45c0,0.29,0.24,0.53,0.53,0.53
			s0.53-0.24,0.53-0.53c0-0.23-0.24-0.36-0.63-0.56c-0.2-0.1-0.4-0.2-0.56-0.34c-0.21-0.18-0.32-0.39-0.32-0.62
			c0-0.54,0.44-0.98,0.98-0.98s0.98,0.44,0.98,0.98h-0.45c0-0.29-0.24-0.53-0.53-0.53s-0.53,0.24-0.53,0.53
			c0,0.23,0.24,0.36,0.63,0.56c0.2,0.1,0.4,0.2,0.56,0.34C67.72,31.93,67.83,32.14,67.83,32.38z"/>
		<path class="st2" d="M70.59,32.38c0,0.54-0.44,0.98-0.98,0.98s-0.98-0.44-0.98-0.98h0.45c0,0.29,0.24,0.53,0.53,0.53
			s0.53-0.24,0.53-0.53c0-0.23-0.24-0.36-0.63-0.56c-0.2-0.1-0.4-0.2-0.56-0.34c-0.21-0.18-0.32-0.39-0.32-0.62
			c0-0.54,0.44-0.98,0.98-0.98s0.98,0.44,0.98,0.98h-0.45c0-0.29-0.24-0.53-0.53-0.53s-0.53,0.24-0.53,0.53
			c0,0.23,0.24,0.36,0.63,0.56c0.2,0.1,0.4,0.2,0.56,0.34C70.48,31.93,70.59,32.14,70.59,32.38z"/>
		<path class="st2" d="M71.58,33.36v-3.48h0.45v3.48H71.58z"/>
		<path class="st2" d="M76.31,31.62c0,0.96-0.78,1.74-1.74,1.74s-1.74-0.78-1.74-1.74s0.78-1.74,1.74-1.74S76.31,30.66,76.31,31.62z
			 M75.86,31.62c0-0.35-0.13-0.67-0.38-0.91c-0.24-0.24-0.57-0.38-0.91-0.38c-0.35,0-0.67,0.13-0.91,0.38
			c-0.24,0.24-0.38,0.57-0.38,0.91c0,0.35,0.13,0.67,0.38,0.91c0.24,0.24,0.57,0.38,0.91,0.38c0.35,0,0.67-0.13,0.91-0.38
			C75.72,32.29,75.86,31.96,75.86,31.62z"/>
		<path class="st2" d="M79.75,29.88v3.48l-2.4-2.4v2.4h-0.45v-3.48l2.4,2.4v-2.4H79.75z"/>
		<path class="st2" d="M83.28,33.36H82.8l-0.36-0.87H81.2l-0.37,0.87h-0.48l1.47-3.48L83.28,33.36z M82.24,32.04l-0.43-1.01
			l-0.43,1.01H82.24z"/>
		<path class="st2" d="M85.8,32.91v0.45h-1.92v-3.48h0.45v3.03H85.8z"/>
		<path class="st2" d="M90.88,33.36H90.4l-0.36-0.87H88.8l-0.37,0.87h-0.48l1.47-3.48L90.88,33.36z M89.85,32.04l-0.43-1.01
			l-0.43,1.01H89.85z"/>
		<path class="st2" d="M94.09,29.88v2.17c0,0.72-0.58,1.3-1.3,1.3c-0.72,0-1.3-0.58-1.3-1.3v-2.17h0.45v2.17
			c0,0.23,0.09,0.44,0.25,0.61c0.16,0.16,0.38,0.25,0.61,0.25s0.44-0.09,0.61-0.25c0.16-0.16,0.25-0.38,0.25-0.61v-2.17H94.09z"/>
		<path class="st2" d="M97.5,31.61c0,0.47-0.18,0.9-0.51,1.23c-0.33,0.33-0.77,0.51-1.23,0.51h-0.86v-3.49h0.86
			c0.47,0,0.9,0.18,1.23,0.51C97.31,30.71,97.5,31.15,97.5,31.61z M97.05,31.61c0-0.71-0.58-1.3-1.3-1.3h-0.42v2.59h0.42
			C96.47,32.91,97.05,32.33,97.05,31.61z"/>
		<path class="st2" d="M98.49,33.36v-3.48h0.45v3.48H98.49z"/>
		<path class="st2" d="M103.21,31.62c0,0.96-0.78,1.74-1.74,1.74s-1.74-0.78-1.74-1.74s0.78-1.74,1.74-1.74
			S103.21,30.66,103.21,31.62z M102.77,31.62c0-0.35-0.13-0.67-0.38-0.91c-0.24-0.24-0.57-0.38-0.91-0.38
			c-0.35,0-0.67,0.13-0.91,0.38c-0.24,0.24-0.38,0.57-0.38,0.91c0,0.35,0.13,0.67,0.38,0.91c0.24,0.24,0.57,0.38,0.91,0.38
			c0.35,0,0.67-0.13,0.91-0.38C102.63,32.29,102.77,31.96,102.77,31.62z"/>
		<path class="st2" d="M106.97,31.81l0.77,1.54h-0.5l-0.76-1.52h-0.67v1.52h-0.45v-3.48h1.39c0.54,0,0.98,0.44,0.98,0.98
			C107.74,31.33,107.41,31.72,106.97,31.81z M106.76,31.39c0.29,0,0.53-0.24,0.53-0.53s-0.24-0.53-0.53-0.53h-0.94v1.07H106.76z"/>
		<path class="st2" d="M108.98,30.32v1.07h1.12v0.45h-1.12v1.07h1.48v0.45h-1.92v-3.48h1.92v0.45H108.98z"/>
		<path class="st2" d="M113.91,32.53l0.32,0.32c-0.31,0.31-0.75,0.51-1.23,0.51c-0.96,0-1.74-0.78-1.74-1.74s0.78-1.74,1.74-1.74
			c0.48,0,0.91,0.19,1.23,0.51l-0.32,0.32c-0.24-0.24-0.57-0.38-0.91-0.38c-0.35,0-0.67,0.13-0.91,0.38
			c-0.24,0.24-0.38,0.57-0.38,0.91c0,0.35,0.13,0.67,0.38,0.91c0.24,0.24,0.57,0.38,0.91,0.38
			C113.34,32.91,113.66,32.78,113.91,32.53z"/>
		<path class="st2" d="M118.3,31.62c0,0.96-0.78,1.74-1.74,1.74s-1.74-0.78-1.74-1.74s0.78-1.74,1.74-1.74S118.3,30.66,118.3,31.62z
			 M117.86,31.62c0-0.35-0.13-0.67-0.38-0.91c-0.24-0.24-0.57-0.38-0.91-0.38c-0.35,0-0.67,0.13-0.91,0.38
			c-0.24,0.24-0.38,0.57-0.38,0.91c0,0.35,0.13,0.67,0.38,0.91c0.24,0.24,0.57,0.38,0.91,0.38c0.35,0,0.67-0.13,0.91-0.38
			C117.72,32.29,117.86,31.96,117.86,31.62z"/>
		<path class="st2" d="M120.5,31.81l0.77,1.54h-0.5l-0.76-1.52h-0.67v1.52h-0.45v-3.48h1.39c0.54,0,0.98,0.44,0.98,0.98
			C121.27,31.33,120.94,31.72,120.5,31.81z M120.29,31.39c0.29,0,0.53-0.24,0.53-0.53s-0.24-0.53-0.53-0.53h-0.94v1.07H120.29z"/>
		<path class="st2" d="M124.68,31.61c0,0.47-0.18,0.9-0.51,1.23c-0.33,0.33-0.77,0.51-1.23,0.51h-0.86v-3.49h0.86
			c0.47,0,0.9,0.18,1.23,0.51C124.5,30.71,124.68,31.15,124.68,31.61z M124.23,31.61c0-0.71-0.58-1.3-1.3-1.3h-0.42v2.59h0.42
			C123.65,32.91,124.23,32.33,124.23,31.61z"/>
		<path class="st2" d="M125.67,33.36v-3.48h0.45v3.48H125.67z"/>
		<path class="st2" d="M129.96,29.88v3.48l-2.4-2.4v2.4h-0.45v-3.48l2.4,2.4v-2.4H129.96z"/>
		<path class="st2" d="M132.5,31.62h1.74c0,0.96-0.78,1.74-1.74,1.74c-0.96,0-1.74-0.78-1.74-1.74s0.78-1.74,1.74-1.74
			c0.81,0,1.49,0.55,1.68,1.3h-0.47c-0.06-0.17-0.17-0.34-0.3-0.47c-0.24-0.24-0.57-0.38-0.91-0.38c-0.35,0-0.67,0.13-0.91,0.38
			c-0.24,0.24-0.38,0.57-0.38,0.91c0,0.35,0.13,0.67,0.38,0.91c0.24,0.24,0.57,0.38,0.91,0.38c0.35,0,0.67-0.13,0.91-0.38
			c0.13-0.13,0.23-0.29,0.3-0.46h-1.21V31.62z"/>
		<path class="st2" d="M136.99,32.38c0,0.54-0.44,0.98-0.98,0.98c-0.54,0-0.98-0.44-0.98-0.98h0.45c0,0.29,0.24,0.53,0.53,0.53
			s0.53-0.24,0.53-0.53c0-0.23-0.24-0.36-0.63-0.56c-0.2-0.1-0.4-0.2-0.56-0.34c-0.21-0.18-0.32-0.39-0.32-0.62
			c0-0.54,0.44-0.98,0.98-0.98c0.54,0,0.98,0.44,0.98,0.98h-0.45c0-0.29-0.24-0.53-0.53-0.53s-0.53,0.24-0.53,0.53
			c0,0.23,0.24,0.36,0.63,0.56c0.2,0.1,0.4,0.2,0.56,0.34C136.88,31.93,136.99,32.14,136.99,32.38z"/>
	</g>
</g>
</svg>
