<?xml version="1.0" encoding="utf-8"?>
<!-- Generator: Adobe Illustrator 21.0.0, SVG Export Plug-In . SVG Version: 6.00 Build 0)  -->
<svg version="1.1" id="Layer_1" xmlns="http://www.w3.org/2000/svg" xmlns:xlink="http://www.w3.org/1999/xlink" x="0px" y="0px"
	 viewBox="0 0 1059.845 265.02" enable-background="new 0 0 1059.845 265.02" xml:space="preserve">
<g>
	<g>
		<path fill="#F58939" d="M444.606,241.111h-3.613l-2.72-6.47h-9.17l-2.726,6.47h-3.613l10.923-25.94L444.606,241.111z
			 M436.868,231.308l-3.18-7.559l-3.185,7.559H436.868z"/>
		<path fill="#F58939" d="M468.496,215.208v16.189c0,5.361-4.347,9.714-9.714,9.714c-5.361,0-9.714-4.352-9.714-9.714v-16.189h3.333
			v16.189c0,1.706,0.66,3.307,1.87,4.511c1.204,1.21,2.805,1.87,4.511,1.87s3.312-0.66,4.516-1.87
			c1.204-1.204,1.87-2.805,1.87-4.511v-16.189H468.496z"/>
		<path fill="#F58939" d="M493.897,228.112c0,3.47-1.352,6.735-3.808,9.191c-2.456,2.456-5.715,3.808-9.191,3.808h-6.444v-25.993
			h6.444c3.476,0,6.735,1.352,9.191,3.803C492.545,221.378,493.897,224.642,493.897,228.112z M490.57,228.112
			c0-5.33-4.342-9.666-9.671-9.666h-3.111v19.332h3.111C486.228,237.778,490.57,233.442,490.57,228.112z"/>
		<path fill="#F58939" d="M501.318,241.111v-25.94h3.328v25.94H501.318z"/>
		<path fill="#F58939" d="M536.523,228.139c0,7.162-5.81,12.973-12.973,12.973c-7.162,0-12.967-5.81-12.967-12.973
			s5.805-12.967,12.967-12.967C530.713,215.171,536.523,220.976,536.523,228.139z M533.19,228.139c0-2.572-1.004-4.997-2.821-6.814
			c-1.822-1.822-4.241-2.826-6.819-2.826c-2.572,0-4.997,1.004-6.814,2.826c-1.822,1.817-2.826,4.241-2.826,6.814
			c0,2.578,1.004,4.997,2.826,6.819c1.817,1.822,4.241,2.821,6.814,2.821c2.578,0,4.997-0.998,6.819-2.821
			C532.186,233.135,533.19,230.716,533.19,228.139z"/>
		<path fill="#F58939" d="M564.533,229.607l5.736,11.478h-3.724l-5.652-11.309h-4.965v11.335h-3.333v-25.94h10.369
			c4.035,0,7.305,3.27,7.305,7.305C570.27,225.968,567.813,228.894,564.533,229.607z M562.965,226.448
			c2.192,0,3.977-1.785,3.977-3.972c0-2.192-1.785-3.977-3.977-3.977h-7.036v7.949H562.965z"/>
		<path fill="#F58939" d="M579.534,218.499v7.976h8.319v3.328h-8.319v7.976h11.002v3.333h-14.335v-25.94h14.335v3.328H579.534z"/>
		<path fill="#F58939" d="M617.702,215.171v25.94l-17.901-17.901v17.901h-3.333v-25.94l17.901,17.901v-17.901H617.702z"/>
		<path fill="#F58939" d="M640.113,215.171v3.328h-6.576v22.612h-3.333v-22.612h-6.576v-3.328H640.113z"/>
		<path fill="#F58939" d="M666.407,241.111h-3.613l-2.72-6.47h-9.17l-2.725,6.47h-3.613l10.923-25.94L666.407,241.111z
			 M658.669,231.308l-3.18-7.559l-3.185,7.559H658.669z"/>
		<path fill="#F58939" d="M685.211,237.778v3.333h-14.335v-25.94h3.333v22.607H685.211z"/>
		<path fill="#F58939" d="M705.753,233.806c0,4.035-3.27,7.305-7.305,7.305s-7.305-3.27-7.305-7.305h3.333
			c0,2.192,1.78,3.972,3.972,3.972s3.972-1.78,3.972-3.972c0-1.685-1.78-2.704-4.717-4.178c-1.474-0.739-2.995-1.505-4.199-2.514
			c-1.569-1.31-2.361-2.868-2.361-4.638c0-4.035,3.27-7.305,7.305-7.305s7.305,3.27,7.305,7.305h-3.333
			c0-2.192-1.78-3.977-3.972-3.977s-3.972,1.785-3.972,3.977c0,1.685,1.78,2.699,4.722,4.178c1.468,0.739,2.99,1.5,4.194,2.509
			C704.961,230.473,705.753,232.037,705.753,233.806z"/>
		<path fill="#F58939" d="M743.075,241.101h-4.347l-1.548-1.843c-1.659,1.231-3.623,1.843-5.594,1.843
			c-2.403,0-4.807-0.914-6.639-2.752c-3.671-3.666-3.671-9.613,0-13.284c0.153-0.153,0.312-0.301,0.47-0.438
			c-0.354-0.951-0.512-1.997-0.417-3.074c0.169-1.923,1.104-3.597,2.477-4.749c1.368-1.157,3.18-1.78,5.108-1.616
			c3.851,0.338,6.703,3.734,6.365,7.59c-0.074,0.845-0.296,1.643-0.639,2.372c-0.433,0.924-1.067,1.732-1.833,2.377
			c-0.09,0.074-0.18,0.148-0.269,0.217l-2.144-2.556c0.09-0.063,0.185-0.137,0.269-0.211c0.576-0.475,0.977-1.104,1.173-1.806
			c0.063-0.222,0.106-0.449,0.127-0.687c0.085-0.972-0.217-1.928-0.845-2.678c-0.629-0.75-1.516-1.21-2.493-1.299
			c-0.977-0.085-1.928,0.217-2.678,0.845c-0.755,0.634-1.215,1.516-1.299,2.493c-0.032,0.354-0.011,0.702,0.053,1.035
			c0.122,0.602,0.391,1.167,0.792,1.648c0.058,0.069,0.116,0.132,0.18,0.195l-0.011,0.005l0.898,1.072l2.768,3.296l4.178,4.981
			c0.312-0.739,0.475-1.542,0.475-2.366c0-0.063,0-0.121,0-0.185h3.328c0.037,1.843-0.465,3.687-1.505,5.293L743.075,241.101z
			 M735.031,236.701l-7.759-9.249c-1.13,1.141-1.748,2.652-1.748,4.257c0,1.616,0.634,3.143,1.775,4.289
			c1.146,1.141,2.673,1.775,4.289,1.775C732.839,237.773,734.027,237.398,735.031,236.701z"/>
		<path fill="#F58939" d="M771.408,229.607l5.736,11.478h-3.724l-5.652-11.309h-4.965v11.335h-3.333v-25.94h10.369
			c4.035,0,7.305,3.27,7.305,7.305C777.144,225.968,774.688,228.894,771.408,229.607z M769.839,226.448
			c2.192,0,3.977-1.785,3.977-3.972c0-2.192-1.785-3.977-3.977-3.977h-7.036v7.949H769.839z"/>
		<path fill="#F58939" d="M786.404,218.499v7.976h8.319v3.328h-8.319v7.976h11.002v3.333h-14.335v-25.94h14.335v3.328H786.404z"/>
		<path fill="#F58939" d="M823.129,234.958l2.35,2.356c-2.345,2.345-5.588,3.798-9.164,3.798c-7.162,0-12.973-5.81-12.973-12.973
			s5.81-12.967,12.973-12.967c3.576,0,6.819,1.447,9.164,3.792l-2.35,2.356c-1.822-1.817-4.241-2.821-6.814-2.821
			c-2.578,0-4.997,1.004-6.819,2.826c-1.817,1.817-2.821,4.241-2.821,6.814c0,2.578,0.998,4.997,2.821,6.819
			c1.822,1.822,4.241,2.821,6.819,2.821C818.888,237.778,821.307,236.78,823.129,234.958z"/>
		<path fill="#F58939" d="M855.888,228.139c0,7.162-5.81,12.973-12.973,12.973c-7.162,0-12.967-5.81-12.967-12.973
			s5.805-12.967,12.967-12.967C850.078,215.171,855.888,220.976,855.888,228.139z M852.555,228.139c0-2.572-1.004-4.997-2.821-6.814
			c-1.822-1.822-4.241-2.826-6.819-2.826c-2.572,0-4.997,1.004-6.814,2.826c-1.822,1.817-2.826,4.241-2.826,6.814
			c0,2.578,1.004,4.997,2.826,6.819c1.817,1.822,4.241,2.821,6.814,2.821c2.578,0,4.997-0.998,6.819-2.821
			C851.552,233.135,852.555,230.716,852.555,228.139z"/>
		<path fill="#F58939" d="M872.305,229.607l5.736,11.478h-3.724l-5.652-11.309H863.7v11.335h-3.333v-25.94h10.369
			c4.035,0,7.305,3.27,7.305,7.305C878.041,225.968,875.585,228.894,872.305,229.607z M870.736,226.448
			c2.192,0,3.977-1.785,3.977-3.972c0-2.192-1.785-3.977-3.977-3.977H863.7v7.949H870.736z"/>
		<path fill="#F58939" d="M903.41,228.112c0,3.47-1.352,6.735-3.808,9.191c-2.456,2.456-5.715,3.808-9.191,3.808h-6.444v-25.993
			h6.444c3.476,0,6.734,1.352,9.191,3.803C902.058,221.378,903.41,224.642,903.41,228.112z M900.083,228.112
			c0-5.33-4.342-9.666-9.671-9.666H887.3v19.332h3.111C895.741,237.778,900.083,233.442,900.083,228.112z"/>
		<path fill="#F58939" d="M910.837,241.111v-25.94h3.328v25.94H910.837z"/>
		<path fill="#F58939" d="M942.814,215.171v25.94l-17.901-17.901v17.901h-3.333v-25.94l17.901,17.901v-17.901H942.814z"/>
		<path fill="#F58939" d="M961.739,228.165h12.941c-0.016,7.152-5.815,12.946-12.967,12.946c-7.162,0-12.973-5.81-12.973-12.973
			s5.81-12.967,12.973-12.967c6.021,0,11.082,4.104,12.545,9.666h-3.486c-0.475-1.305-1.231-2.504-2.245-3.513
			c-1.817-1.822-4.241-2.826-6.814-2.826c-2.578,0-4.997,1.004-6.819,2.826c-1.817,1.817-2.821,4.241-2.821,6.814
			c0,2.578,0.998,4.997,2.821,6.819c1.822,1.822,4.241,2.821,6.819,2.821c2.572,0,4.997-0.998,6.814-2.821
			c0.998-0.998,1.748-2.176,2.224-3.46h-9.011V228.165z"/>
		<path fill="#F58939" d="M995.217,233.806c0,4.035-3.27,7.305-7.305,7.305c-4.035,0-7.305-3.27-7.305-7.305h3.333
			c0,2.192,1.78,3.972,3.972,3.972c2.192,0,3.972-1.78,3.972-3.972c0-1.685-1.78-2.704-4.717-4.178
			c-1.474-0.739-2.995-1.505-4.199-2.514c-1.569-1.31-2.361-2.868-2.361-4.638c0-4.035,3.27-7.305,7.305-7.305
			c4.035,0,7.305,3.27,7.305,7.305h-3.333c0-2.192-1.78-3.977-3.972-3.977c-2.192,0-3.972,1.785-3.972,3.977
			c0,1.685,1.78,2.699,4.722,4.178c1.468,0.739,2.99,1.5,4.194,2.509C994.424,230.473,995.217,232.037,995.217,233.806z"/>
	</g>
	<g>
		<path fill-rule="evenodd" clip-rule="evenodd" fill="#F58939" d="M106.449,254.375c0,5.855-4.79,10.645-10.645,10.645
			c-5.855,0-10.645-4.79-10.645-10.645c0-77.939-0.001-155.881-0.001-233.821h0.001v-9.909C85.16,4.79,89.95,0,95.805,0
			c5.855,0,10.645,4.79,10.645,10.645l-0.001,97.722l0.001,55.663C106.45,194.145,106.449,224.26,106.449,254.375z"/>
		<path fill-rule="evenodd" clip-rule="evenodd" fill="#F58939" d="M10.645,169.917C4.79,169.917,0,165.127,0,159.272l0-53.524
			c0-5.855,4.79-10.645,10.645-10.645c5.855,0,10.645,4.79,10.645,10.645v53.524C21.29,165.127,16.5,169.917,10.645,169.917z"/>
		<path fill-rule="evenodd" clip-rule="evenodd" fill="#F58939" d="M53.225,190.686c-5.855,0-10.645-4.79-10.645-10.645V84.979
			c0-5.855,4.79-10.645,10.645-10.645c5.855,0,10.645,4.79,10.645,10.645v95.063C63.87,185.896,59.08,190.686,53.225,190.686z"/>
	</g>
	<g>
		<polygon fill="#404041" points="1032.008,36.976 982.818,94.986 933.624,36.976 905.787,36.976 972.191,115.174 972.191,185.723 
			993.441,185.723 993.441,115.174 1059.845,36.976 		"/>
		<path fill="#404041" d="M257.656,164.473h-95.623v21.25h95.623c9.807,0,18.39-2.928,25.783-8.695
			c-4.787-5.269-9.021-11.037-12.533-17.287C267.122,162.83,262.733,164.473,257.656,164.473z"/>
		<path fill="#404041" d="M772.921,58.756c-14.518-14.518-32.048-21.78-52.589-21.78h-42.545h-21.205v90.459l21.205,25.086V58.227
			h0.045h20.148h22.353c14.659,0,27.18,5.188,37.557,15.566c10.377,10.378,15.566,22.893,15.566,37.557
			c0,14.664-5.189,27.185-15.566,37.557c-10.377,10.377-22.898,15.566-37.557,15.566h-22.353h-20.148v2.922h-0.045v-2.922h-9.971
			l-106.925-125.9l-1.356-1.596h-19.867h-0.027v74.374c0,14.664-5.188,27.185-15.566,37.557
			c-10.377,10.377-22.898,15.566-37.557,15.566c-14.664,0-27.185-5.189-37.562-15.566c-10.377-10.372-15.561-22.893-15.561-37.557
			v-0.524c-0.007-0.003-0.015-0.005-0.023-0.007c-0.121-20.75-7.247-38.578-21.227-53.554c-0.706-0.755-1.343-1.54-2.084-2.282
			c-15.547-15.547-34.333-23.318-56.362-23.318c-20.732,0-38.557,6.973-53.548,20.743c-0.938,0.862-1.903,1.659-2.818,2.575
			c-1.053,1.053-1.981,2.16-2.963,3.244c-8.663,9.556-14.547,20.269-17.674,32.132c0.998,0.356,2.01,0.674,2.985,1.089
			c5.94,2.522,11.392,6.181,16.291,10.788c1.785-12.271,7.207-23.028,16.398-32.214c11.402-11.407,25.178-17.106,41.329-17.106
			c16.147,0,29.923,5.699,41.329,17.106c11.402,11.401,17.105,25.178,17.105,41.329s-5.703,29.928-17.105,41.329
			c-11.406,11.406-25.183,17.105-41.329,17.105c-16.151,0-29.928-5.699-41.329-17.105c-6.742-6.74-11.461-14.322-14.217-22.722
			c-0.137-0.429-0.272-0.859-0.424-1.282c-0.029-0.095-0.065-0.187-0.094-0.283c-0.004,0.001-0.009,0.003-0.013,0.004
			c-2.051-5.602-5.346-10.684-9.902-15.238c-4.044-4.046-8.509-7.087-13.379-9.157c-5.109-2.172-10.667-3.273-16.685-3.273h-53.128
			c-5.878,0-10.887-2.073-15.032-6.218s-6.213-9.154-6.213-15.033c0-5.877,2.068-10.891,6.213-15.037
			c4.145-4.14,9.154-6.213,15.032-6.213h72.228c2.173-3.02,4.542-5.882,7.046-8.62c0.159-0.179,0.297-0.366,0.457-0.544l0.862-0.91
			c0.355-0.373,0.701-0.754,1.062-1.12l2.323-2.452l2.414-2.217c2.084-1.915,4.226-3.698,6.408-5.388h-92.801
			c-11.755,0-21.779,4.146-30.064,12.431c-8.29,8.286-12.431,18.309-12.431,30.069c0,11.756,4.141,21.78,12.431,30.065
			c8.286,8.29,18.309,12.431,30.064,12.431h53.128c5.878,0,10.887,2.072,15.032,6.218c2.485,2.485,4.131,5.32,5.125,8.427
			l0.095-0.016c3.364,10.228,8.896,19.553,16.568,27.987c0.95,1.044,1.842,2.112,2.858,3.128
			c15.547,15.547,34.337,23.319,56.366,23.319c22.029,0,40.815-7.772,56.362-23.319c5.324-5.325,9.666-11.058,13.167-17.143
			c2.983,4.698,6.499,9.176,10.695,13.371c14.518,14.518,32.052,21.779,52.594,21.779c20.537,0,38.072-7.261,52.59-21.779
			c0.199-0.199,0.364-0.413,0.561-0.614c13.615-13.884,20.68-30.48,21.175-49.802c0.025,0.016,0.05,0.032,0.076,0.048V71.508
			l95.663,112.639l1.339,1.576h19.867h42.545c20.542,0,38.072-7.261,52.589-21.779c14.522-14.522,21.784-32.052,21.784-52.594
			S787.444,73.279,772.921,58.756z M274.236,117.432c0.014,0.208,0.024,0.417,0.04,0.624
			C274.26,117.849,274.251,117.639,274.236,117.432z M274.011,111.35c0,1.172,0.029,2.333,0.073,3.487
			C274.037,113.684,274.011,112.522,274.011,111.35z M300.106,141.197c0.029,0.669,0.045,1.344,0.045,2.026
			C300.151,142.541,300.134,141.867,300.106,141.197z M299.985,139.306c0.004,0.046,0.006,0.094,0.01,0.14
			C299.991,139.4,299.989,139.352,299.985,139.306z"/>
		<polygon fill="#404041" points="814.516,123.566 829.537,141.217 863.135,72.358 901.299,150.572 918.467,185.722 
			942.078,185.722 863.135,23.909 		"/>
		<polygon fill="#404041" points="784.192,185.722 807.804,185.722 815.397,170.175 800.383,152.534 		"/>
	</g>
</g>
</svg>
